<svg width="24" height="24" viewBox="0 0 24 24" fill="none" xmlns="http://www.w3.org/2000/svg">
<g id="Group">
<path id="Vector" d="M3.28304 10.94C3.00214 11.2213 2.84436 11.6025 2.84436 12C2.84436 12.3975 3.00214 12.7788 3.28304 13.06L8.93904 18.718C9.07837 18.8573 9.24378 18.9679 9.42583 19.0433C9.60788 19.1187 9.80299 19.1575 10 19.1575C10.1971 19.1575 10.3922 19.1187 10.5742 19.0433C10.7563 18.9679 10.9217 18.8573 11.061 18.718C11.2004 18.5787 11.3109 18.4133 11.3863 18.2312C11.4617 18.0492 11.5005 17.8541 11.5005 17.657C11.5005 17.46 11.4617 17.2648 11.3863 17.0828C11.3109 16.9008 11.2004 16.7353 11.061 16.596L7.96504 13.5H19.5C19.8979 13.5 20.2794 13.342 20.5607 13.0607C20.842 12.7794 21 12.3978 21 12C21 11.6022 20.842 11.2207 20.5607 10.9394C20.2794 10.658 19.8979 10.5 19.5 10.5H7.96504L11.061 7.40401C11.3423 7.12262 11.5003 6.74102 11.5002 6.34316C11.5001 5.9453 11.3419 5.56377 11.0605 5.28251C10.7791 5.00125 10.3975 4.84329 9.99969 4.84338C9.60183 4.84348 9.2203 5.00162 8.93904 5.28301L3.28304 10.94Z" fill="#1B0F03"/>
</g>
</svg>
