<svg width="80" height="62" viewBox="0 0 80 62" fill="none" xmlns="http://www.w3.org/2000/svg">
<g id="Logo">
<g id="Group 1">
<path id="Vector" fill-rule="evenodd" clip-rule="evenodd" d="M9.34312 39.7514H9.34089C13.38 38.6561 13.071 38.7468 13.7112 38.468C14.9072 37.9502 15.474 37.1537 15.4985 35.961C15.5141 35.1578 15.5363 35.3238 15.2028 33.6222C15.1339 33.2704 15.1784 33.1177 15.3496 33.1199C15.5007 33.1199 15.0984 31.7348 18.1638 42.8137C18.2683 43.2408 18.2572 43.3182 18.0838 43.3227C17.8771 43.3293 17.8748 43.3227 17.4992 42.2053C16.9256 40.5015 16.0053 39.5899 14.7494 39.4836C13.878 39.4084 13.9113 39.404 12.0084 39.9417C10.8236 40.2492 11.1193 40.1718 9.93442 40.4816C9.15417 40.6873 9.34979 40.6121 8.55841 41.0038C8.04935 41.256 5.75971 41.8933 5.34623 41.8977C4.85274 41.8911 4.56153 41.5547 4.68157 41.1232C4.7816 40.8201 4.87274 40.7626 5.59076 40.5568C7.08681 40.1275 8.10271 39.8797 8.33389 39.8886C8.85407 39.9129 8.70957 39.9328 9.34312 39.7514Z" fill="#F4841F"/>
<path id="Vector_2" fill-rule="evenodd" clip-rule="evenodd" d="M18.2216 31.5423H18.2194L21.3916 43.1767H18.8396C17.1968 37.209 17.6081 38.7004 15.9675 32.7327L18.1949 31.4472C18.2105 31.5003 18.2061 31.487 18.2216 31.5423Z" fill="#F4841F"/>
<path id="Vector_3" fill-rule="evenodd" clip-rule="evenodd" d="M33.1266 34.6908L33.131 34.693C29.7432 34.0071 28.0671 33.8654 25.095 34.0115C24.1392 34.058 22.0229 34.381 20.7069 34.6775C20.3801 34.7505 20.4624 34.7328 20.1356 34.8058C19.8933 34.069 19.9533 34.2527 19.7088 33.5158L21.6672 32.9804C23.2478 32.6839 23.5723 32.6485 25.8508 32.5423C26.4666 32.5135 26.8245 32.4383 26.8023 32.3409C26.7467 32.0997 25.3418 32.0223 23.0633 32.1329C22.1318 32.1794 21.9407 32.2126 19.8288 32.7038C19.5999 32.7569 19.4976 32.7126 19.4932 32.5577C19.4843 32.1882 19.5443 32.1373 20.2312 31.9249C23.4478 30.9314 27.278 30.8473 31.8262 31.6727C33.809 32.0333 33.3934 31.9448 34.7338 32.2834L36.9834 32.852L39.811 33.7238L40.8914 34.1642C41.8917 34.5713 41.2271 34.3434 45.5463 35.7662C46.6066 36.1158 46.291 36.025 47.7603 36.41C48.3628 36.5871 48.2116 36.5428 48.814 36.7154C49.6965 36.9676 52.3196 37.5075 53.0199 37.5806L54.7627 37.8085C56.5032 38.0342 58.6506 38.1205 60.7113 38.043C61.9606 37.9965 64.3681 37.5319 65.5707 37.107C67.5158 36.4189 68.8051 35.7396 70.1011 34.724C70.4723 34.4341 70.8458 34.1022 71.4126 33.5579C71.646 33.3344 71.6238 33.3499 71.6905 33.372C71.7194 33.3831 71.7083 33.434 71.6194 33.6862C71.2904 34.516 70.0166 36.4322 69.2008 37.3305C67.8715 38.7887 67.0912 39.4082 65.3239 40.4084C63.6945 41.3311 62.6586 41.7183 60.6224 42.163L58.824 42.5569C58.2794 42.652 58.5684 42.6233 56.8011 42.7472C54.6382 42.8999 53.3911 42.8932 50.3523 42.7162L46.1754 42.3334C45.2151 42.1896 45.4551 42.225 44.497 42.0834C43.7123 42.0192 44.0324 42.0613 42.2452 41.7869L38.0527 41.143L36.6233 40.9593C35.4896 40.8133 35.7364 40.8399 34.8938 40.7668L32.6198 40.488C30.7391 40.2579 26.9156 40.2402 25.8086 40.4571C25.4529 40.5256 25.5841 40.5035 24.8928 40.6053C24.2881 40.6938 24.0258 40.7735 22.4786 41.3488L21.9785 41.5346L21.6005 40.2114C22.4142 39.8021 22.1741 39.8972 23.2744 39.5499C25.0884 38.9746 26.9534 38.8086 30.419 38.9148C31.8039 38.9569 34.4537 39.3175 37.0635 39.8176C41.1448 40.5987 40.1245 40.4017 44.2036 41.1917C46.3888 41.4904 47.4002 41.5855 47.7448 41.5236C47.8315 41.5125 47.8315 41.5081 47.727 41.4572C47.687 41.4395 47.707 41.4528 47.5892 41.3665C47.478 41.3001 47.8871 41.382 44.726 40.7956C41.3671 40.0035 42.2074 40.1982 38.8463 39.4215C35.214 38.5829 34.4804 38.4479 31.8662 38.1404C29.8188 37.9014 29.1564 37.866 27.4114 37.9036C26.102 37.9324 24.7194 38.1271 23.2433 38.4878C22.4364 38.7289 22.6387 38.6692 21.8317 38.9082C21.5094 39.0033 21.5894 38.979 21.2693 39.0719C20.7781 37.2376 20.9003 37.6956 20.4113 35.8613L22.4808 35.4365C23.8946 35.1444 27.1335 34.9342 28.574 35.0404L29.7566 35.0647L31.3638 35.2019C32.4419 35.2948 32.1085 35.2484 33.6868 35.5272C35.7719 35.8967 35.2495 35.8038 37.3347 36.1733C37.0679 35.8834 37.139 35.9365 36.8367 35.7993C36.3366 35.5891 33.8424 34.8412 33.1888 34.7041C33.1533 34.6952 33.1622 34.6974 33.1266 34.6908ZM45.1017 37.2066C44.9639 37.2132 44.9038 37.2973 44.7749 37.658C44.7304 37.7797 44.4993 38.0474 44.3814 38.116C43.8012 38.4369 43.8746 38.3926 43.8679 38.4192L43.8746 38.397C43.8702 38.4125 43.8768 38.4258 43.8991 38.4391C44.0102 38.5055 43.9946 38.4966 44.0102 38.5099C44.1147 38.6006 44.0724 38.5741 44.3014 38.7002L45.1239 39.6627C45.1684 39.5676 45.1973 39.5122 45.244 39.4193C45.5329 38.8595 45.4662 38.9502 45.7152 38.7821C46.3354 38.3793 46.2598 38.4369 46.2554 38.3926C46.251 38.3484 46.142 38.2554 46.0264 38.2001C45.5641 37.9988 45.484 37.9213 45.284 37.4655C45.1617 37.1646 45.1862 37.2022 45.1017 37.2066ZM55.7474 40.2889C55.663 40.2579 55.7074 40.2247 55.4273 40.5146L55.1539 40.7978C55.065 40.9084 55.0694 40.9328 55.1895 41.0655L55.3473 41.2426C55.4518 41.3709 55.4251 41.3399 55.5296 41.4683C55.6407 41.5833 55.7119 41.601 55.783 41.5324C56.0653 41.2581 56.0186 41.3001 56.1142 41.2337C56.2276 41.1563 56.2009 41.1762 56.3143 41.101C56.4188 41.0036 56.4099 40.9084 56.2832 40.7934C55.6985 40.2269 55.7741 40.2977 55.7474 40.2889Z" fill="#F4841F"/>
<path id="Vector_4" fill-rule="evenodd" clip-rule="evenodd" d="M44.3392 25.9442L44.3303 25.9376L44.6215 25.9331L44.6259 27.9976L42.5608 27.9909L42.5719 25.9575L44.3392 25.9442Z" fill="#F4841F"/>
<path id="Vector_5" fill-rule="evenodd" clip-rule="evenodd" d="M43.072 23.2978L43.0898 23.2955C43.9745 23.2801 43.7545 23.2845 44.6392 23.2668L44.617 25.3113C43.4344 25.298 43.73 25.3002 42.5474 25.2892L42.5452 23.3066L43.072 23.2978Z" fill="#F4841F"/>
<path id="Vector_6" fill-rule="evenodd" clip-rule="evenodd" d="M47.1445 25.9529L47.1556 25.9551C47.2868 25.9573 47.2534 25.9573 47.3846 25.9573C47.3357 27.1367 47.3468 26.8424 47.2979 28.024L45.2728 27.9598L45.315 25.9529H47.1445Z" fill="#F4841F"/>
<path id="Vector_7" fill-rule="evenodd" clip-rule="evenodd" d="M47.3246 23.2934C47.3313 24.4396 47.3291 24.152 47.3358 25.2981C46.1465 25.2937 46.4443 25.2959 45.2551 25.2937L45.3573 23.2934C46.3999 23.2934 46.1398 23.2934 47.1802 23.2934H47.3246Z" fill="#F4841F"/>
<path id="Vector_8" fill-rule="evenodd" clip-rule="evenodd" d="M71.706 28.0218L71.7082 28.0151C71.7304 27.9709 71.7571 27.9664 71.7905 28.0018C71.8927 28.1036 71.8949 28.1589 71.8394 28.8139C71.7705 29.5928 71.2703 31.197 70.8724 31.9028C70.0899 33.2968 69.4163 34.0115 68.2849 34.6466L67.8136 34.9497C66.8733 35.5538 65.235 36.0516 63.5989 36.2308C63.1809 36.2773 63.261 36.2662 63.0365 36.2994C62.7608 36.3415 62.4496 36.3039 62.394 36.2242C62.3629 36.1822 62.4229 36.1313 62.5874 36.056L63.1921 35.8901C63.9234 35.6909 65.8352 34.8944 66.4087 34.5492C67.7513 33.7416 68.167 33.4384 68.8184 32.7813C69.3674 32.2281 70.0721 31.3828 70.3522 30.9403C70.9902 29.9313 71.3392 29.1812 71.6993 28.0439L71.706 28.0218Z" fill="#F4841F"/>
<path id="Vector_9" fill-rule="evenodd" clip-rule="evenodd" d="M62.0317 10.6943H62.0272C62.3851 11.2187 62.5007 11.4112 62.623 11.6944C62.6875 11.8161 62.6697 11.7851 62.7341 11.9046C62.6897 11.9511 62.8431 12.1281 61.6516 10.6766C58.9129 7.33541 55.2472 4.62708 51.486 3.16006C48.9407 2.16878 46.6621 1.64437 44.1369 1.46957C37.6436 1.02039 31.915 2.7308 26.7867 6.64948C22.7764 9.71406 19.5398 14.447 18.1749 19.2485C17.1746 22.7667 16.9589 25.5481 17.3791 29.5199C17.4636 30.3386 17.4724 30.2899 17.2301 30.3585C16.8589 30.4647 16.1898 30.3629 16.0875 30.1837C15.7296 29.5486 15.4985 25.6477 15.6874 23.4748C15.9586 20.3881 16.561 17.9696 17.7548 15.1993C18.8885 12.5662 21.0403 9.45738 23.0587 7.53013L24.5793 6.08082C27.1468 3.96327 29.3253 2.71531 32.5219 1.53373C35.3717 0.480493 38.0104 0.0202533 41.2826 0.000339087C44.0679 -0.0151498 47.0378 0.500407 49.6898 1.46072C51.4504 2.09576 52.7308 2.68655 54.1557 3.51852C57.3323 5.37497 59.9065 7.72042 62.0317 10.6943Z" fill="#F4841F"/>
<path id="Vector_10" fill-rule="evenodd" clip-rule="evenodd" d="M59.7132 25.008L59.7176 25.0058L63.3033 28.6922C64.308 29.7255 64.208 29.6237 64.5014 29.9047C64.6415 30.0485 64.6682 30.2101 64.5681 30.3229C64.5125 30.3849 64.9905 30.376 61.2203 30.3893C57.4835 30.4026 58.106 30.5641 56.8656 29.2564C56.4854 28.9068 56.581 28.9931 56.2009 28.6435L42.4608 14.5863C41.5872 15.3341 42.2496 14.6748 37.8281 19.2174C33.7957 23.3618 34.8071 22.3285 30.748 26.4463C29.9811 27.2738 30.1745 27.0681 29.4031 27.889C28.8363 28.4908 27.1112 30.1857 26.9934 30.2565C26.7022 30.4159 26.9312 30.3959 25.3796 30.3959C19.7888 30.3893 20.3401 30.4048 20.2645 30.2521C20.1734 30.0729 18.8063 31.5045 29.8433 20.2198L42.4319 7.34854C47.1268 12.1235 45.9531 10.9287 50.6457 15.7037C50.7502 15.7501 50.8903 15.7479 50.9592 15.6992C51.0459 15.6373 51.0303 15.9426 51.0547 13.5485L51.0614 12.8692C53.5823 12.8559 52.9532 12.8604 55.4718 12.8471L55.5318 14.7987L55.4896 16.8211C55.4896 18.3788 55.4918 17.9894 55.4807 19.5471C55.4695 20.8393 55.185 20.3879 57.468 22.7179C58.7506 24.0278 58.4283 23.7003 59.7132 25.008Z" fill="#F4841F"/>
<path id="Vector_11" fill-rule="evenodd" clip-rule="evenodd" d="M62.4518 22.5099H62.454C62.5118 22.5962 62.4851 22.5342 62.6385 22.9414C62.7786 23.2888 63.0209 23.4525 63.6589 23.6295C63.7189 23.6494 63.7456 23.6826 63.7233 23.718C63.7078 23.7446 63.7611 23.7269 63.3632 23.853C62.8808 24.0057 62.7163 24.1738 62.514 24.7093C62.4607 24.8487 62.3607 24.9859 62.3295 24.9638C62.2829 24.8022 62.294 24.8421 62.2473 24.6805C62.085 24.2004 61.8138 23.9592 61.2603 23.7955C61.1736 23.7689 61.1447 23.7357 61.1514 23.6782C61.1603 23.6229 61.1291 23.6384 61.3626 23.5631C61.9005 23.3728 62.1717 23.0586 62.2962 22.4944C62.3095 22.4413 62.3184 22.4236 62.334 22.417C62.3607 22.4037 62.3918 22.428 62.4518 22.5099Z" fill="#F4841F"/>
<path id="Vector_12" fill-rule="evenodd" clip-rule="evenodd" d="M66.4909 11.5463C66.6843 12.5553 67.0044 13.1085 67.5312 13.343L68.3315 13.6019C68.5182 13.6616 68.7205 13.7612 68.7161 13.7922C68.7138 13.8099 68.8161 13.7811 68.0114 13.9913C67.1022 14.2281 66.7087 14.7149 66.5064 15.85C66.4798 16.0115 66.4464 16.0536 66.3686 16.0182C66.3264 15.9982 66.3397 16.0381 66.2841 15.7416C66.1908 15.2858 65.8907 14.6131 65.7106 14.4449C65.3616 14.1219 65.2349 14.0688 64.2479 13.8387C64.199 13.8254 64.1768 13.8055 64.1812 13.7789C64.1968 13.6816 64.2346 13.6661 64.9015 13.478C65.675 13.2634 66.0463 12.8252 66.2775 11.8583C66.2975 11.7764 66.3086 11.6968 66.3197 11.5463C66.3264 11.491 66.3508 11.4578 66.3908 11.4512C66.442 11.4445 66.4775 11.4755 66.4909 11.5463Z" fill="#F4841F"/>
<path id="Vector_13" fill-rule="evenodd" clip-rule="evenodd" d="M68.7384 19.0515V19.0537C68.7762 18.9961 68.794 18.9873 68.8162 19.0138L68.8851 19.3524C69.0452 20.1069 69.4676 20.5096 70.2945 20.6889C70.3834 20.7132 70.399 20.7375 70.3656 20.7973C70.3367 20.8504 70.4145 20.8172 69.8254 21.0362C69.2964 21.231 68.9674 21.6182 68.874 22.1537C68.8229 22.501 68.834 22.4568 68.794 22.459C68.7495 22.459 68.674 22.3683 68.625 22.2532L68.465 21.8018C68.3116 21.3615 68.0271 21.1203 67.4713 20.9544C67.2668 20.8924 67.0979 20.8504 66.8889 20.8061L67.9671 20.3569C68.3227 20.1379 68.3516 20.0892 68.6362 19.2484C68.6651 19.1709 68.6539 19.1931 68.7384 19.0515Z" fill="#F4841F"/>
<path id="Vector_14" fill-rule="evenodd" clip-rule="evenodd" d="M10.9125 58.3799C10.6591 59.2915 10.5302 60.1478 10.5302 60.951C10.5302 60.9577 10.5302 60.9621 10.5302 60.9687C10.5302 61.0882 10.3612 61.1458 10.0033 61.1458C9.94552 61.1458 9.88328 61.1435 9.81437 61.1413C8.57173 61.0838 7.08457 61.055 5.43736 61.055C3.50116 61.055 1.87173 61.0904 0.486828 61.1635C0.437923 61.1657 0.393464 61.1679 0.351228 61.1679C0.215627 61.1679 0.126709 61.1502 0.0844725 61.1192C0.0288985 61.0661 0.00666888 60.9643 0.00666888 60.7829C0.00666888 60.6014 0.166722 60.493 0.486828 60.4598C0.85584 60.4244 1.13149 60.3094 1.31377 60.1169C1.49383 59.9288 1.58275 59.6655 1.58275 59.3291L1.58497 49.3787C1.58497 48.8653 1.51606 48.5024 1.37379 48.2568C1.20929 47.9758 0.886961 47.7568 0.386795 47.5886C0.128932 47.5023 0 47.3651 0 47.1748C0 47.0819 0.0311214 46.9535 0.0711347 46.8938C0.115594 46.8252 0.168945 46.8031 0.306768 46.8031C0.39791 46.8031 0.531287 46.8142 0.733577 46.8341C1.24486 46.8894 1.80504 46.9159 2.40969 46.9159C3.08991 46.9159 3.83016 46.8827 4.63043 46.8142C4.86161 46.7942 4.97721 46.7876 5.03723 46.7876C5.23729 46.7876 5.35289 46.927 5.35289 47.1726C5.35289 47.3186 5.30398 47.4182 5.20173 47.4802C5.15504 47.5134 5.00166 47.5576 4.7438 47.6151C4.21029 47.7324 3.89018 47.8608 3.7568 48.009C3.62342 48.1506 3.55451 48.4604 3.55451 48.9361V58.5857C3.55451 59.1875 3.76792 59.6013 4.19473 59.8248C4.60597 60.0394 5.37734 60.15 6.48882 60.15C7.5514 60.15 8.33832 60.0195 8.85183 59.7606C9.35644 59.4907 9.76991 58.995 10.0945 58.2737C10.1856 58.0546 10.3101 57.9462 10.4724 57.9462C10.5257 57.9462 10.5813 57.9573 10.6435 57.9816C10.8303 58.0259 10.9281 58.1232 10.9281 58.2693C10.9281 58.3047 10.9236 58.3423 10.9125 58.3799Z" fill="#F4841F"/>
<path id="Vector_15" fill-rule="evenodd" clip-rule="evenodd" d="M16.6232 48.6021C16.6232 48.9384 16.4988 49.2394 16.2409 49.5292C15.9875 49.8058 15.6963 49.9496 15.3917 49.9496C15.036 49.9496 14.7471 49.8501 14.527 49.6487C14.3047 49.4452 14.1935 49.1818 14.1935 48.861C14.1935 48.5402 14.3336 48.2414 14.607 47.9781C14.876 47.706 15.1672 47.5688 15.4806 47.5688C16.2409 47.5688 16.6232 47.9118 16.6232 48.6021ZM17.8659 60.8073C17.8259 61.0419 17.7125 61.1658 17.5347 61.1658C17.4524 61.1658 17.2946 61.1591 17.0589 61.1414C16.6143 61.1105 16.1653 61.095 15.7118 61.095C15.0761 61.095 14.4314 61.126 13.7778 61.1835C13.6689 61.1968 13.5756 61.2034 13.4978 61.2034C13.1977 61.2034 13.1176 61.1193 13.1176 60.8073C13.1176 60.6436 13.3199 60.5042 13.7112 60.398C14.1446 60.2785 14.3603 59.8824 14.3603 59.2098C14.3603 57.5746 14.3603 57.9839 14.3603 56.351C14.3603 55.7934 14.3002 55.4017 14.1802 55.1782C14.009 54.8574 13.6645 54.614 13.1643 54.4547C12.9309 54.3817 12.8153 54.2644 12.8153 54.1051C12.8153 53.8927 12.9865 53.7333 13.3199 53.636C13.949 53.4545 14.5025 53.2045 14.9849 52.8903C15.3851 52.6292 15.6162 52.5053 15.7096 52.5053C15.9964 52.5053 16.1409 52.6779 16.1409 53.0253C16.1409 53.0386 16.1409 53.0518 16.1409 53.0651C16.112 54.8485 16.0964 56.6585 16.0964 58.4973C16.0964 58.6057 16.0964 58.7141 16.0964 58.8225C16.0964 58.8292 16.0964 58.8358 16.0964 58.8402C16.0964 59.2961 16.1675 59.6235 16.3076 59.8271C16.461 60.0462 16.7522 60.201 17.2057 60.3006C17.6458 60.398 17.8703 60.5507 17.8703 60.752C17.8703 60.7697 17.8681 60.7874 17.8659 60.8073Z" fill="#F4841F"/>
<path id="Vector_16" fill-rule="evenodd" clip-rule="evenodd" d="M28.3916 59.3734C28.2938 59.4664 27.9737 60.201 27.3357 61.7875C27.2779 61.9291 27.169 61.9999 27.0112 61.9999C26.9645 61.9999 26.9134 61.9933 26.8578 61.9822C26.6755 61.9468 26.5822 61.8428 26.5822 61.6724C26.5822 61.6326 26.5888 61.5883 26.5999 61.5397C26.6044 61.5197 26.6066 61.502 26.6066 61.4843C26.6066 61.3184 26.4199 61.2122 26.0509 61.1657C25.2484 61.0639 23.0854 61.0108 19.7243 61.0086C19.522 61.0086 19.422 60.8736 19.422 60.6015C19.422 60.5417 19.4353 60.5019 19.4665 60.4842C21.4782 58.4817 23.49 56.4792 25.5018 54.479C25.5907 54.3794 25.6374 54.3064 25.6374 54.2621C25.6374 54.2112 25.5663 54.1869 25.4129 54.1869C25.3351 54.1869 24.3147 54.2068 22.3563 54.2466C21.6472 54.2599 21.1048 54.4635 20.7535 54.8441C20.4246 55.2003 20.18 55.3729 19.9977 55.3729C19.9733 55.3729 19.9488 55.3685 19.9266 55.3618C19.771 55.3131 19.691 55.2379 19.691 55.1406C19.691 55.0941 19.7088 55.041 19.7465 54.9857C19.8799 54.7865 20.1867 54.074 20.8447 52.4411C20.9247 52.2641 21.0492 52.1822 21.2359 52.1822C21.4716 52.1822 21.6161 52.2574 21.6961 52.4189C21.7717 52.5982 22.0829 52.6977 22.6586 52.7265C23.7123 52.7796 25.2951 52.8172 27.6736 52.8394H27.6781C27.7781 52.8394 27.8648 52.8969 27.9426 53.0119C28.0226 53.1204 28.0649 53.2177 28.0671 53.304C28.0649 53.335 28.056 53.3571 28.0449 53.3682L21.994 59.2628C21.8939 59.3624 21.8428 59.4376 21.8406 59.4907C21.8517 59.5659 21.9606 59.5991 22.1985 59.5969C23.4389 59.5925 24.6771 59.5859 25.9153 59.577C26.5755 59.5549 27.0868 59.4575 27.4736 59.2761C27.8337 59.1079 28.0649 59.0061 28.0893 59.0061C28.1493 59.0061 28.2049 59.0194 28.2783 59.0504C28.4094 59.0902 28.4761 59.1455 28.4761 59.2163C28.4761 59.2628 28.4472 59.3137 28.3916 59.3734Z" fill="#F4841F"/>
<path id="Vector_17" fill-rule="evenodd" clip-rule="evenodd" d="M59.6531 47.341C59.6531 47.5866 59.4219 47.7702 58.9373 47.9119C58.4194 48.0645 57.9837 48.558 57.6325 49.3988C56.0653 53.1183 54.5136 56.9109 52.9531 60.8273C52.8331 61.1305 52.5641 61.3363 52.1284 61.4535C52.0951 61.4712 52.0773 61.4757 52.0506 61.4757C51.8394 61.4757 51.6883 61.261 51.5927 60.8296C51.2481 59.2475 49.9877 56.0833 47.8625 51.4699C46.9222 53.7534 45.6729 56.8998 44.1524 60.8318C44.0279 61.1504 43.7367 61.3606 43.261 61.4757C43.0476 61.4757 42.9009 61.261 42.8187 60.8296C42.5452 59.4002 40.9358 55.5235 37.9126 49.0204C37.6058 48.3588 37.0723 47.945 36.3298 47.7879C35.9675 47.7105 35.7808 47.6021 35.7808 47.4715C35.7808 47.1949 35.9119 47.0555 36.1742 47.0555C36.2031 47.0555 36.232 47.0578 36.2631 47.06C36.5877 47.0887 36.9345 47.102 37.3057 47.102C38.2505 47.102 39.3486 47.0113 40.5957 46.8343C40.7469 46.8122 40.8736 46.8011 40.9692 46.8011C41.1203 46.8011 41.1714 46.821 41.2115 46.894C41.2448 46.9515 41.2826 47.1109 41.2826 47.1817C41.2826 47.3166 41.0936 47.4782 40.7291 47.6508C40.2578 47.8742 40.0133 48.1442 40.0133 48.4407C40.0133 48.5712 40.0466 48.7217 40.1155 48.8943C40.8624 50.8016 42.054 53.8308 43.6878 57.9818C43.7434 58.1234 43.8101 58.1876 43.9012 58.1876C43.979 58.1876 44.0435 58.119 44.0969 57.9818L47.2023 50.036C47.0778 49.8015 46.9089 49.463 46.6955 49.0248C46.431 48.4849 45.9575 48.0645 45.275 47.7636C44.9571 47.6242 44.7926 47.4804 44.7926 47.3454C44.7926 47.3366 44.7926 47.3277 44.7949 47.3189C44.8238 47.0334 44.9594 46.8918 45.1972 46.8918C45.2283 46.8918 45.2639 46.894 45.2995 46.9007C46.0353 47.0135 46.8244 47.071 47.6625 47.071C48.3249 47.071 49.0185 47.0356 49.7432 46.9626C49.861 46.9516 49.961 46.9449 50.0455 46.9449C50.2478 46.9449 50.3278 46.9737 50.3656 47.0578C50.3923 47.1153 50.4056 47.2038 50.4056 47.3189C50.4056 47.5003 50.2211 47.6397 49.8343 47.7614C49.0918 47.9915 48.7362 48.2194 48.7362 48.4628C48.7362 48.5646 48.774 48.7084 48.8473 48.8943L52.4552 57.9818C52.513 58.1323 52.5819 58.1987 52.6775 58.1987C52.7575 58.1987 52.8353 58.119 52.8887 57.9818L56.2387 49.3789C56.3009 49.1886 56.3276 49.0448 56.3276 48.9142C56.3276 48.423 55.8852 48.0336 54.9938 47.7415C54.6737 47.6375 54.5136 47.4826 54.5136 47.279C54.5136 47.1308 54.5648 46.998 54.6381 46.9648C54.6759 46.9471 54.7493 46.9405 54.8538 46.9405C54.956 46.9405 55.0916 46.9493 55.2517 46.967C56.0053 47.0533 56.7411 47.0954 57.4568 47.0954C58.0437 47.0954 58.615 47.0666 59.173 47.0069C59.2063 47.0047 59.2397 47.0024 59.2708 47.0024C59.5242 47.0024 59.6531 47.1153 59.6531 47.341Z" fill="#F4841F"/>
<path id="Vector_18" fill-rule="evenodd" clip-rule="evenodd" d="M65.5218 48.6021C65.5218 48.9384 65.3973 49.2394 65.1394 49.5292C64.886 49.8058 64.5948 49.9496 64.2903 49.9496C63.9346 49.9496 63.6456 49.8501 63.4255 49.6487C63.2033 49.4452 63.0921 49.1818 63.0921 48.861C63.0921 48.5402 63.2321 48.2414 63.5056 47.9781C63.7746 47.706 64.0658 47.5688 64.3792 47.5688C65.1394 47.5688 65.5218 47.9118 65.5218 48.6021ZM66.7644 60.8073C66.7244 61.0419 66.6111 61.1658 66.4332 61.1658C66.351 61.1658 66.1931 61.1591 65.9575 61.1414C65.5129 61.1105 65.0639 61.095 64.6104 61.095C63.9746 61.095 63.33 61.126 62.6764 61.1835C62.5675 61.1968 62.4741 61.2034 62.3963 61.2034C62.0962 61.2034 62.0162 61.1193 62.0162 60.8073C62.0162 60.6436 62.2185 60.5042 62.6097 60.398C63.0432 60.2785 63.2588 59.8824 63.2588 59.2098C63.2588 57.5746 63.2588 57.9839 63.2588 56.351C63.2588 55.7934 63.1988 55.4017 63.0788 55.1782C62.9076 54.8574 62.563 54.614 62.0606 54.4547C61.8295 54.3817 61.7139 54.2644 61.7139 54.1051C61.7139 53.8927 61.885 53.7333 62.2185 53.636C62.8476 53.4545 63.4011 53.2045 63.8835 52.8903C64.2836 52.6292 64.5148 52.5053 64.6059 52.5053C64.8949 52.5053 65.0394 52.6779 65.0394 53.0253C65.0394 53.0386 65.0394 53.0518 65.0394 53.0651C65.0105 54.8485 64.995 56.6585 64.995 58.4973C64.995 58.6057 64.995 58.7141 64.995 58.8225C64.995 58.8292 64.995 58.8358 64.995 58.8402C64.995 59.2961 65.0661 59.6235 65.2061 59.8271C65.3595 60.0462 65.6507 60.201 66.102 60.3006C66.5444 60.398 66.7689 60.5507 66.7689 60.752C66.7689 60.7697 66.7667 60.7874 66.7644 60.8073Z" fill="#F4841F"/>
<path id="Vector_19" fill-rule="evenodd" clip-rule="evenodd" d="M73.46 60.7631C73.46 61.022 73.3288 61.1459 73.0576 61.1459C73.0265 61.1459 72.9909 61.1437 72.9554 61.1415C72.5219 61.0994 72.0417 61.0795 71.5082 61.0795C70.8102 61.0795 70.0211 61.1149 69.1274 61.1835C69.0096 61.1968 68.9074 61.2034 68.8207 61.2034C68.694 61.2034 68.6073 61.1902 68.5673 61.1636C68.4917 61.1216 68.4539 61.0065 68.4539 60.8206C68.4539 60.6348 68.6428 60.4976 69.0696 60.3737C69.2519 60.3206 69.3942 60.2188 69.4942 60.0683C69.6143 59.8869 69.6743 59.6324 69.6743 59.3072V49.5514C69.6743 48.9761 69.5876 48.5424 69.4186 48.268C69.2386 47.9981 68.9229 47.7835 68.4872 47.633C68.2605 47.56 68.1404 47.4427 68.1404 47.2989C68.1404 47.082 68.3094 46.9205 68.6451 46.8121C69.1741 46.6439 69.6987 46.3983 70.2234 46.0797C70.6702 45.8208 70.9525 45.6925 71.0748 45.6925C71.3504 45.6925 71.4882 45.8717 71.4882 46.2346C71.4638 46.8541 71.4704 46.6993 71.446 47.3188C71.4282 47.8344 71.4193 48.3411 71.4215 48.8433L71.4638 59.0505C71.466 59.4886 71.5771 59.8028 71.8017 60.0086C72.024 60.2033 72.4085 60.3316 72.9554 60.398C73.2866 60.429 73.46 60.5551 73.46 60.7631Z" fill="#F4841F"/>
<path id="Vector_20" fill-rule="evenodd" clip-rule="evenodd" d="M80 60.7631C80 61.022 79.8666 61.1459 79.5954 61.1459C79.5643 61.1459 79.5309 61.1437 79.4953 61.1415C79.0619 61.0994 78.5795 61.0795 78.046 61.0795C77.3502 61.0795 76.561 61.1149 75.6652 61.1835C75.5496 61.1968 75.4473 61.2034 75.3606 61.2034C75.2339 61.2034 75.1472 61.1902 75.105 61.1636C75.0316 61.1216 74.9939 61.0065 74.9939 60.8206C74.9939 60.6348 75.1806 60.4976 75.6096 60.3737C75.7919 60.3206 75.9342 60.2188 76.0342 60.0683C76.1542 59.8869 76.2143 59.6324 76.2143 59.3072V49.5514C76.2143 48.9761 76.1276 48.5424 75.9564 48.268C75.7763 47.9981 75.4629 47.7835 75.0272 47.633C74.8005 47.56 74.6804 47.4427 74.6804 47.2989C74.6804 47.082 74.8471 46.9205 75.185 46.8121C75.7141 46.6439 76.2387 46.3983 76.7633 46.0797C77.2079 45.8208 77.4925 45.6925 77.6147 45.6925C77.8904 45.6925 78.0282 45.8717 78.0282 46.2346C78.0015 46.8541 78.0082 46.6993 77.986 47.3188C77.966 47.8344 77.9571 48.3411 77.9593 48.8433L78.0037 59.0505C78.0037 59.4886 78.1149 59.8028 78.3416 60.0086C78.5639 60.2033 78.9485 60.3316 79.4953 60.398C79.8243 60.429 80 60.5551 80 60.7631Z" fill="#F4841F"/>
</g>
</g>
</svg>
