<svg width="158" height="125" viewBox="0 0 158 125" fill="none" xmlns="http://www.w3.org/2000/svg">
<g id="Group 1">
<path id="Vector" fill-rule="evenodd" clip-rule="evenodd" d="M18.4527 80.1439H18.4483C26.4256 77.9357 25.8153 78.1186 27.0797 77.5565C29.4417 76.5126 30.5613 74.9066 30.6096 72.5021C30.6403 70.8827 30.6842 71.2173 30.0256 67.7868C29.8895 67.0774 29.9773 66.7696 30.3154 66.7741C30.6139 66.7741 29.8193 63.9815 35.8736 86.3181C36.0799 87.179 36.058 87.3352 35.7155 87.3441C35.3072 87.3575 35.3028 87.3441 34.5609 85.0913C33.4282 81.6562 31.6106 79.8183 29.13 79.6041C27.409 79.4525 27.4748 79.4435 23.7167 80.5276C21.3767 81.1477 21.9606 80.9915 19.6205 81.6161C18.0795 82.031 18.4659 81.8793 16.9029 82.6689C15.8975 83.1775 11.3754 84.4623 10.5588 84.4712C9.58419 84.4578 9.00905 83.7797 9.24613 82.9098C9.4437 82.2986 9.6237 82.1826 11.0418 81.7678C13.9965 80.9023 16.0029 80.4027 16.4595 80.4205C17.4868 80.4696 17.2014 80.5097 18.4527 80.1439Z" fill="white"/>
<path id="Vector_2" fill-rule="evenodd" clip-rule="evenodd" d="M35.9878 63.5937H35.9834L42.2484 87.05H37.2083C33.9638 75.0185 34.776 78.0252 31.5359 65.9937L35.9351 63.4019C35.9658 63.5089 35.957 63.4822 35.9878 63.5937Z" fill="white"/>
<path id="Vector_3" fill-rule="evenodd" clip-rule="evenodd" d="M65.4251 69.9414L65.4339 69.9458C58.743 68.5629 55.4327 68.2774 49.5628 68.5718C47.6749 68.6655 43.4953 69.3168 40.8962 69.9146C40.2508 70.0618 40.4133 70.0261 39.7679 70.1734C39.2894 68.6878 39.4079 69.0581 38.925 67.5726L42.7929 66.493C45.9144 65.8952 46.5554 65.8238 51.0555 65.6097C52.2716 65.5517 52.9785 65.4 52.9346 65.2037C52.8248 64.7175 50.0501 64.5613 45.55 64.7844C43.7104 64.8781 43.3329 64.945 39.162 65.9353C38.7098 66.0424 38.5079 65.9532 38.4991 65.6409C38.4815 64.8959 38.6001 64.7933 39.9567 64.365C46.3095 62.362 53.8741 62.1925 62.8567 63.8565C66.7729 64.5836 65.9519 64.4052 68.5993 65.0877L73.0423 66.2342L78.6269 67.9919L80.7606 68.8796C82.7362 69.7005 81.4235 69.241 89.954 72.1095C92.0482 72.8143 91.4247 72.6314 94.3267 73.4076C95.5165 73.7645 95.218 73.6753 96.4078 74.0233C98.1507 74.5318 103.331 75.6203 104.714 75.7675L108.156 76.227C111.594 76.6821 115.835 76.856 119.905 76.6999C122.372 76.6062 127.127 75.6694 129.502 74.8129C133.344 73.4255 135.89 72.0559 138.45 70.0083C139.183 69.4239 139.92 68.7547 141.04 67.6573C141.501 67.2067 141.457 67.238 141.589 67.2826C141.646 67.3049 141.624 67.4075 141.448 67.9161C140.799 69.589 138.283 73.4522 136.672 75.2634C134.046 78.2033 132.505 79.4524 129.015 81.4688C125.797 83.3291 123.751 84.1097 119.729 85.0064L116.177 85.8005C115.102 85.9923 115.673 85.9343 112.182 86.1841C107.91 86.492 105.447 86.4786 99.4459 86.1217L91.1964 85.3499C89.2998 85.06 89.774 85.1313 87.8817 84.8458C86.3319 84.7165 86.9641 84.8012 83.4343 84.248L75.1541 82.9499L72.3311 82.5796C70.092 82.2852 70.5794 82.3387 68.9154 82.1915L64.4241 81.6294C60.7099 81.1654 53.1585 81.1297 50.9721 81.5669C50.2696 81.7052 50.5286 81.6606 49.1633 81.8658C47.9691 82.0443 47.451 82.2049 44.3953 83.3647L43.4075 83.7395L42.6611 81.0718C44.268 80.2465 43.7939 80.4383 45.9671 79.7379C49.5496 78.578 53.2331 78.2434 60.0776 78.4576C62.8128 78.5423 68.0461 79.2695 73.2004 80.2777C81.2611 81.8524 79.2459 81.4554 87.3022 83.048C91.6179 83.6503 93.6155 83.8421 94.296 83.7172C94.4672 83.6949 94.4672 83.6859 94.2609 83.5833C94.1819 83.5476 94.2214 83.5744 93.9887 83.4004C93.7692 83.2666 94.577 83.4317 88.3339 82.2495C81.7001 80.6524 83.3597 81.045 76.7215 79.4792C69.5476 77.7884 68.0988 77.5163 62.9358 76.8962C58.8923 76.4144 57.5839 76.343 54.1375 76.4189C51.5516 76.4769 48.8208 76.8694 45.9056 77.5966C44.3119 78.0828 44.7114 77.9624 43.1177 78.4442C42.4811 78.636 42.6392 78.5869 42.007 78.7743C41.0367 75.0761 41.2782 75.9995 40.3123 72.3013L44.3997 71.4448C47.192 70.8559 53.5887 70.4321 56.4337 70.6462L58.7693 70.6953L61.9435 70.9719C64.0729 71.1593 63.4143 71.0656 66.5315 71.6277C70.6496 72.3727 69.6179 72.1853 73.736 72.9303C73.2092 72.3459 73.3497 72.453 72.7526 72.1764C71.7648 71.7526 66.8388 70.2447 65.548 69.9681C65.4778 69.9503 65.4953 69.9548 65.4251 69.9414ZM89.0759 75.0136C88.8037 75.027 88.6851 75.1965 88.4305 75.9237C88.3427 76.169 87.8861 76.7088 87.6534 76.8471C86.5075 77.494 86.6524 77.4048 86.6392 77.4583L86.6524 77.4137C86.6436 77.4449 86.6568 77.4717 86.7007 77.4984C86.9202 77.6323 86.8895 77.6144 86.9202 77.6412C87.1266 77.8241 87.0432 77.7706 87.4954 78.0248L89.1198 79.9654C89.2076 79.7736 89.2647 79.6621 89.3569 79.4747C89.9276 78.346 89.7959 78.5289 90.2876 78.1899C91.5125 77.378 91.3633 77.494 91.3545 77.4047C91.3457 77.3155 91.1306 77.1282 90.9023 77.0166C89.9891 76.6107 89.831 76.4545 89.4359 75.5356C89.1944 74.9289 89.2427 75.0047 89.0759 75.0136ZM110.101 81.2279C109.934 81.1654 110.022 81.0985 109.469 81.6829L108.929 82.2539C108.753 82.477 108.762 82.5261 108.999 82.7937L109.311 83.1506C109.517 83.4094 109.465 83.3469 109.671 83.6056C109.891 83.8376 110.031 83.8733 110.172 83.735C110.729 83.1818 110.637 83.2666 110.826 83.1328C111.05 82.9766 110.997 83.0168 111.221 82.8651C111.427 82.6688 111.41 82.477 111.159 82.245C110.005 81.103 110.154 81.2457 110.101 81.2279Z" fill="white"/>
<path id="Vector_4" fill-rule="evenodd" clip-rule="evenodd" d="M87.5698 52.307L87.5522 52.2936L88.1273 52.2847L88.1361 56.4468L84.0575 56.4335L84.0794 52.3337L87.5698 52.307Z" fill="white"/>
<path id="Vector_5" fill-rule="evenodd" clip-rule="evenodd" d="M85.0672 46.9716L85.1024 46.9672C86.8497 46.9359 86.4151 46.9449 88.1624 46.9092L88.1185 51.0312C85.7829 51.0044 86.3668 51.0089 84.0311 50.9866L84.0267 46.9895L85.0672 46.9716Z" fill="white"/>
<path id="Vector_6" fill-rule="evenodd" clip-rule="evenodd" d="M93.1104 52.3247L93.1324 52.3292C93.3914 52.3336 93.3256 52.3336 93.5846 52.3336C93.488 54.7114 93.51 54.1181 93.4134 56.5003L89.4138 56.3709L89.4972 52.3247H93.1104Z" fill="white"/>
<path id="Vector_7" fill-rule="evenodd" clip-rule="evenodd" d="M93.4661 46.9629C93.4793 49.2737 93.4749 48.6938 93.4881 51.0046C91.1393 50.9957 91.7276 51.0002 89.3787 50.9957L89.5807 46.9629C91.6397 46.9629 91.1261 46.9629 93.1808 46.9629H93.4661Z" fill="white"/>
<path id="Vector_8" fill-rule="evenodd" clip-rule="evenodd" d="M141.619 56.4957L141.624 56.4823C141.668 56.3931 141.72 56.3842 141.786 56.4555C141.988 56.6608 141.993 56.7723 141.883 58.0928C141.747 59.6631 140.759 62.8973 139.973 64.3204C138.428 67.1309 137.097 68.5718 134.863 69.8521L133.932 70.4633C132.075 71.6812 128.839 72.6849 125.608 73.0463C124.782 73.14 124.94 73.1176 124.497 73.1846C123.953 73.2693 123.338 73.1935 123.228 73.0329C123.167 72.9481 123.285 72.8455 123.61 72.6938L124.804 72.3593C126.249 71.9578 130.024 70.3518 131.157 69.6559C133.809 68.0276 134.63 67.4164 135.916 66.0915C137.001 64.9762 138.392 63.2721 138.946 62.3798C140.206 60.3456 140.895 58.8333 141.606 56.5403L141.619 56.4957Z" fill="white"/>
<path id="Vector_9" fill-rule="evenodd" clip-rule="evenodd" d="M122.513 21.5613H122.504C123.211 22.6186 123.439 23.0067 123.68 23.5777C123.808 23.8231 123.773 23.7606 123.9 24.0015C123.812 24.0952 124.115 24.4521 121.762 21.5256C116.353 14.7894 109.113 9.32903 101.685 6.37134C96.6578 4.37278 92.1577 3.3155 87.1702 2.96308C74.346 2.05748 63.0321 5.50589 52.9036 13.4065C44.9834 19.585 38.591 29.1273 35.8954 38.8078C33.9197 45.9009 33.4938 51.5085 34.3236 59.5161C34.4905 61.1667 34.508 61.0685 34.0295 61.2068C33.2963 61.421 31.9748 61.2158 31.7728 60.8544C31.066 59.5741 30.6094 51.7092 30.9826 47.3284C31.5182 41.1053 32.708 36.2293 35.0656 30.644C37.3047 25.3354 41.5545 19.0676 45.541 15.182L48.544 12.26C53.6148 7.99071 57.9173 5.47466 64.2307 3.09245C69.8591 0.96898 75.0704 0.0410774 81.533 0.000927783C87.0341 -0.0302997 92.8996 1.00913 98.1373 2.94524C101.614 4.22556 104.143 5.41667 106.958 7.09403C113.231 10.8369 118.315 15.5656 122.513 21.5613Z" fill="white"/>
<path id="Vector_10" fill-rule="evenodd" clip-rule="evenodd" d="M117.933 50.4195L117.942 50.415L125.024 57.8472C127.008 59.9305 126.811 59.7253 127.39 60.2918C127.667 60.5818 127.72 60.9075 127.522 61.135C127.412 61.2599 128.356 61.2421 120.91 61.2688C113.53 61.2956 114.759 61.6212 112.309 58.9848C111.559 58.2799 111.747 58.4539 110.997 57.749L83.86 29.4078C82.1346 30.9157 83.4429 29.5863 74.7105 38.7449C66.7465 47.1005 68.7441 45.0171 60.7273 53.3192C59.2126 54.9876 59.5946 54.5728 58.0711 56.2278C56.9516 57.4412 53.5447 60.8584 53.312 61.0012C52.7369 61.3224 53.1891 61.2822 50.1246 61.2822C39.0829 61.2688 40.1717 61.3001 40.0224 60.9922C39.8424 60.6309 37.1424 63.5172 58.9404 40.7657L83.8029 14.8157C93.0754 24.4427 90.7573 22.0337 100.025 31.6607C100.232 31.7544 100.508 31.7499 100.644 31.6518C100.816 31.5269 100.785 32.1425 100.833 27.3156L100.846 25.9461C105.825 25.9193 104.582 25.9282 109.557 25.9014L109.675 29.8361L109.592 33.9135C109.592 37.0541 109.596 36.269 109.574 39.4096C109.552 42.0148 108.99 41.1048 113.499 45.8023C116.032 48.4432 115.396 47.783 117.933 50.4195Z" fill="white"/>
<path id="Vector_11" fill-rule="evenodd" clip-rule="evenodd" d="M123.342 45.3832H123.347C123.461 45.5572 123.408 45.4323 123.711 46.2531C123.988 46.9535 124.466 47.2836 125.726 47.6405C125.845 47.6807 125.897 47.7476 125.854 47.819C125.823 47.8725 125.928 47.8368 125.142 48.0911C124.19 48.3989 123.865 48.7379 123.465 49.8175C123.36 50.0986 123.162 50.3752 123.101 50.3305C123.009 50.0049 123.031 50.0852 122.938 49.7595C122.618 48.7915 122.082 48.3052 120.989 47.9751C120.818 47.9216 120.761 47.8546 120.774 47.7387C120.791 47.6271 120.73 47.6584 121.191 47.5067C122.253 47.123 122.789 46.4896 123.035 45.352C123.061 45.2449 123.079 45.2092 123.11 45.1958C123.162 45.1691 123.224 45.2182 123.342 45.3832Z" fill="white"/>
<path id="Vector_12" fill-rule="evenodd" clip-rule="evenodd" d="M131.319 23.279C131.701 25.3133 132.334 26.4286 133.374 26.9014L134.955 27.4234C135.324 27.5438 135.723 27.7446 135.714 27.807C135.71 27.8427 135.912 27.7847 134.323 28.2085C132.527 28.6859 131.75 29.6673 131.35 31.9558C131.298 32.2815 131.232 32.3662 131.078 32.2949C130.995 32.2547 131.021 32.335 130.911 31.7372C130.727 30.8183 130.134 29.4621 129.778 29.123C129.089 28.4717 128.839 28.3647 126.89 27.9007C126.793 27.8739 126.749 27.8338 126.758 27.7803C126.789 27.584 126.863 27.5528 128.18 27.1736C129.708 26.7408 130.441 25.8575 130.898 23.9081C130.938 23.743 130.959 23.5824 130.981 23.279C130.995 23.1675 131.043 23.1006 131.122 23.0872C131.223 23.0738 131.293 23.1363 131.319 23.279Z" fill="white"/>
<path id="Vector_13" fill-rule="evenodd" clip-rule="evenodd" d="M135.758 38.4106V38.415C135.833 38.2991 135.868 38.2812 135.912 38.3347L136.048 39.0173C136.364 40.5385 137.198 41.3504 138.832 41.7118C139.007 41.7608 139.038 41.8099 138.972 41.9304C138.915 42.0374 139.069 41.9705 137.905 42.4122C136.86 42.8047 136.211 43.5854 136.026 44.665C135.925 45.3654 135.947 45.2762 135.868 45.2806C135.78 45.2806 135.631 45.0977 135.534 44.8658L135.218 43.9557C134.915 43.0679 134.353 42.5817 133.256 42.2471C132.852 42.1222 132.518 42.0374 132.106 41.9482L134.235 41.0426C134.937 40.601 134.994 40.5028 135.556 38.8076C135.613 38.6515 135.592 38.6961 135.758 38.4106Z" fill="white"/>
<path id="Vector_14" fill-rule="evenodd" clip-rule="evenodd" d="M21.5522 117.702C21.0517 119.54 20.7971 121.266 20.7971 122.886C20.7971 122.899 20.7971 122.908 20.7971 122.921C20.7971 123.162 20.4634 123.278 19.7566 123.278C19.6424 123.278 19.5195 123.274 19.3834 123.269C16.9292 123.153 13.992 123.095 10.7388 123.095C6.91479 123.095 3.69667 123.167 0.961486 123.314C0.864898 123.318 0.777091 123.323 0.693675 123.323C0.425864 123.323 0.25025 123.287 0.166833 123.225C0.0570745 123.118 0.013171 122.912 0.013171 122.547C0.013171 122.181 0.329276 121.962 0.961486 121.895C1.69028 121.824 2.23469 121.592 2.59469 121.204C2.95031 120.825 3.12593 120.294 3.12593 119.616L3.13032 99.5542C3.13032 98.5193 2.99422 97.7877 2.71323 97.2925C2.38835 96.7259 1.75175 96.2843 0.76392 95.9452C0.25464 95.7713 0 95.4947 0 95.111C0 94.9236 0.0614648 94.6649 0.140491 94.5445C0.228298 94.4062 0.333666 94.3616 0.605868 94.3616C0.785872 94.3616 1.04929 94.3839 1.44881 94.424C2.45859 94.5355 3.56496 94.5891 4.75913 94.5891C6.10258 94.5891 7.56457 94.5222 9.14509 94.3839C9.60169 94.3437 9.82998 94.3303 9.94852 94.3303C10.3437 94.3303 10.572 94.6114 10.572 95.1066C10.572 95.401 10.4754 95.6017 10.2734 95.7266C10.1812 95.7936 9.87828 95.8828 9.369 95.9988C8.31531 96.2352 7.6831 96.4939 7.41968 96.7928C7.15626 97.0783 7.02016 97.7029 7.02016 98.662V118.117C7.02016 119.33 7.44164 120.164 8.28458 120.615C9.0968 121.048 10.6202 121.271 12.8154 121.271C14.914 121.271 16.4682 121.008 17.4824 120.486C18.479 119.941 19.2956 118.942 19.9366 117.488C20.1166 117.046 20.3624 116.828 20.6829 116.828C20.7883 116.828 20.898 116.85 21.021 116.899C21.3898 116.988 21.5829 117.184 21.5829 117.479C21.5829 117.55 21.5742 117.626 21.5522 117.702Z" fill="white"/>
<path id="Vector_15" fill-rule="evenodd" clip-rule="evenodd" d="M32.8309 97.9888C32.8309 98.6669 32.585 99.2736 32.0758 99.858C31.5753 100.416 31.0001 100.706 30.3987 100.706C29.6962 100.706 29.1255 100.505 28.6908 100.099C28.2518 99.6885 28.0323 99.1576 28.0323 98.5108C28.0323 97.8639 28.3088 97.2617 28.8489 96.7308C29.3801 96.1821 29.9552 95.9055 30.5743 95.9055C32.0758 95.9055 32.8309 96.597 32.8309 97.9888ZM35.2851 122.596C35.2061 123.069 34.9822 123.319 34.6309 123.319C34.4685 123.319 34.1568 123.305 33.6914 123.27C32.8133 123.207 31.9265 123.176 31.0309 123.176C29.7752 123.176 28.502 123.239 27.2113 123.355C26.9961 123.381 26.8117 123.395 26.6581 123.395C26.0654 123.395 25.9073 123.225 25.9073 122.596C25.9073 122.266 26.3068 121.985 27.0796 121.771C27.9357 121.53 28.3615 120.731 28.3615 119.375C28.3615 116.078 28.3615 116.904 28.3615 113.612C28.3615 112.487 28.243 111.698 28.0059 111.247C27.6679 110.6 26.9874 110.11 25.9995 109.788C25.5385 109.641 25.3102 109.405 25.3102 109.084C25.3102 108.655 25.6483 108.334 26.3068 108.138C27.5493 107.772 28.6425 107.268 29.5952 106.634C30.3855 106.108 30.8421 105.858 31.0265 105.858C31.5928 105.858 31.8782 106.206 31.8782 106.907C31.8782 106.933 31.8782 106.96 31.8782 106.987C31.8211 110.582 31.7904 114.232 31.7904 117.939C31.7904 118.157 31.7904 118.376 31.7904 118.595C31.7904 118.608 31.7904 118.621 31.7904 118.63C31.7904 119.549 31.9309 120.209 32.2075 120.62C32.5104 121.062 33.0855 121.374 33.9812 121.575C34.8505 121.771 35.2939 122.079 35.2939 122.485C35.2939 122.52 35.2895 122.556 35.2851 122.596Z" fill="white"/>
<path id="Vector_16" fill-rule="evenodd" clip-rule="evenodd" d="M56.0734 119.705C55.8803 119.892 55.2481 121.373 53.988 124.572C53.8739 124.857 53.6588 125 53.347 125C53.2548 125 53.1539 124.987 53.0441 124.964C52.6841 124.893 52.4997 124.683 52.4997 124.34C52.4997 124.26 52.5129 124.17 52.5348 124.072C52.5436 124.032 52.548 123.996 52.548 123.961C52.548 123.626 52.1792 123.412 51.4504 123.318C49.8655 123.113 45.5937 123.006 38.9555 123.002C38.556 123.002 38.3584 122.729 38.3584 122.181C38.3584 122.06 38.3847 121.98 38.4462 121.944C42.4195 117.907 46.3927 113.87 50.366 109.837C50.5416 109.636 50.6338 109.489 50.6338 109.4C50.6338 109.297 50.4933 109.248 50.1904 109.248C50.0367 109.248 48.0215 109.288 44.1537 109.368C42.7531 109.395 41.6819 109.806 40.9882 110.573C40.3384 111.291 39.8555 111.639 39.4955 111.639C39.4472 111.639 39.3989 111.63 39.355 111.617C39.0477 111.519 38.8896 111.367 38.8896 111.171C38.8896 111.077 38.9248 110.97 38.9994 110.858C39.2628 110.457 39.8687 109.021 41.1682 105.728C41.3263 105.371 41.5721 105.206 41.9409 105.206C42.4063 105.206 42.6917 105.358 42.8497 105.684C42.999 106.045 43.6136 106.246 44.7507 106.304C46.8318 106.411 49.9577 106.487 54.6554 106.531H54.6641C54.8617 106.531 55.0329 106.647 55.1866 106.879C55.3446 107.098 55.4281 107.294 55.4325 107.468C55.4281 107.531 55.4105 107.575 55.3886 107.597L43.438 119.482C43.2405 119.682 43.1395 119.834 43.1351 119.941C43.157 120.093 43.3722 120.16 43.8419 120.155C46.2918 120.146 48.7372 120.133 51.1826 120.115C52.4865 120.071 53.4963 119.874 54.2602 119.509C54.9715 119.169 55.4281 118.964 55.4764 118.964C55.5949 118.964 55.7047 118.991 55.8495 119.053C56.1086 119.134 56.2403 119.245 56.2403 119.388C56.2403 119.482 56.1832 119.584 56.0734 119.705Z" fill="white"/>
<path id="Vector_17" fill-rule="evenodd" clip-rule="evenodd" d="M117.815 95.4459C117.815 95.9411 117.358 96.3114 116.401 96.5969C115.378 96.9047 114.518 97.8995 113.824 99.5947C110.729 107.094 107.664 114.74 104.582 122.636C104.345 123.247 103.814 123.662 102.954 123.899C102.888 123.934 102.853 123.943 102.8 123.943C102.383 123.943 102.084 123.511 101.896 122.641C101.215 119.451 98.7257 113.072 94.5285 103.77C92.6714 108.374 90.204 114.718 87.201 122.645C86.9552 123.287 86.38 123.711 85.4405 123.943C85.019 123.943 84.7293 123.511 84.5668 122.641C84.0268 119.759 80.8482 111.943 74.8773 98.8319C74.2715 97.498 73.2178 96.6638 71.7514 96.3471C71.0358 96.1909 70.667 95.9723 70.667 95.7091C70.667 95.1515 70.926 94.8704 71.4441 94.8704C71.5012 94.8704 71.5582 94.8749 71.6197 94.8794C72.2607 94.9374 72.9456 94.9641 73.6788 94.9641C75.5447 94.9641 77.7135 94.7812 80.1765 94.4243C80.475 94.3797 80.7253 94.3574 80.9141 94.3574C81.2126 94.3574 81.3136 94.3976 81.3926 94.5448C81.4585 94.6608 81.5331 94.982 81.5331 95.1247C81.5331 95.3969 81.1599 95.7225 80.4399 96.0705C79.5091 96.521 79.0262 97.0653 79.0262 97.6631C79.0262 97.9263 79.0921 98.2296 79.2282 98.5776C80.7033 102.423 83.0565 108.53 86.2835 116.899C86.3932 117.185 86.5249 117.314 86.7049 117.314C86.8586 117.314 86.9859 117.176 87.0913 116.899L93.2246 100.88C92.9787 100.407 92.6451 99.7241 92.2236 98.8408C91.7011 97.7523 90.766 96.9047 89.4182 96.298C88.7903 96.0169 88.4655 95.727 88.4655 95.4548C88.4655 95.437 88.4655 95.4192 88.4698 95.4013C88.5269 94.8258 88.7947 94.5403 89.2645 94.5403C89.326 94.5403 89.3962 94.5448 89.4665 94.5582C90.9197 94.7857 92.4782 94.9017 94.1334 94.9017C95.4417 94.9017 96.8115 94.8303 98.2428 94.6831C98.4754 94.6608 98.673 94.6474 98.8398 94.6474C99.2394 94.6474 99.3974 94.7054 99.4721 94.8749C99.5247 94.9909 99.5511 95.1693 99.5511 95.4013C99.5511 95.7671 99.1867 96.0482 98.4228 96.2935C96.9564 96.7575 96.2539 97.217 96.2539 97.7077C96.2539 97.9129 96.3286 98.2029 96.4734 98.5776L103.599 116.899C103.713 117.203 103.849 117.336 104.038 117.336C104.196 117.336 104.35 117.176 104.455 116.899L111.071 99.5546C111.194 99.1709 111.247 98.881 111.247 98.6177C111.247 97.6274 110.373 96.8422 108.613 96.2534C107.981 96.0437 107.664 95.7314 107.664 95.321C107.664 95.0221 107.765 94.7545 107.91 94.6875C107.985 94.6519 108.13 94.6385 108.336 94.6385C108.538 94.6385 108.806 94.6563 109.122 94.692C110.61 94.866 112.064 94.9507 113.477 94.9507C114.636 94.9507 115.765 94.8928 116.867 94.7723C116.932 94.7678 116.998 94.7634 117.06 94.7634C117.56 94.7634 117.815 94.9909 117.815 95.4459Z" fill="white"/>
<path id="Vector_18" fill-rule="evenodd" clip-rule="evenodd" d="M129.406 97.9888C129.406 98.6669 129.16 99.2736 128.65 99.858C128.15 100.416 127.575 100.706 126.973 100.706C126.271 100.706 125.7 100.505 125.265 100.099C124.826 99.6885 124.607 99.1576 124.607 98.5108C124.607 97.8639 124.883 97.2617 125.424 96.7308C125.955 96.1821 126.53 95.9055 127.149 95.9055C128.65 95.9055 129.406 96.597 129.406 97.9888ZM131.86 122.596C131.781 123.069 131.557 123.319 131.206 123.319C131.043 123.319 130.731 123.305 130.266 123.27C129.388 123.207 128.501 123.176 127.606 123.176C126.35 123.176 125.077 123.239 123.786 123.355C123.571 123.381 123.386 123.395 123.233 123.395C122.64 123.395 122.482 123.225 122.482 122.596C122.482 122.266 122.881 121.985 123.654 121.771C124.51 121.53 124.936 120.731 124.936 119.375C124.936 116.078 124.936 116.904 124.936 113.612C124.936 112.487 124.818 111.698 124.581 111.247C124.243 110.6 123.562 110.11 122.57 109.788C122.113 109.641 121.885 109.405 121.885 109.084C121.885 108.655 122.223 108.334 122.882 108.138C124.124 107.772 125.217 107.268 126.17 106.634C126.96 106.108 127.417 105.858 127.597 105.858C128.167 105.858 128.453 106.206 128.453 106.907C128.453 106.933 128.453 106.96 128.453 106.987C128.396 110.582 128.365 114.232 128.365 117.939C128.365 118.157 128.365 118.376 128.365 118.595C128.365 118.608 128.365 118.621 128.365 118.63C128.365 119.549 128.506 120.209 128.782 120.62C129.085 121.062 129.66 121.374 130.551 121.575C131.425 121.771 131.869 122.079 131.869 122.485C131.869 122.52 131.864 122.556 131.86 122.596Z" fill="white"/>
<path id="Vector_19" fill-rule="evenodd" clip-rule="evenodd" d="M145.083 122.507C145.083 123.029 144.824 123.278 144.289 123.278C144.227 123.278 144.157 123.274 144.087 123.27C143.231 123.185 142.282 123.145 141.229 123.145C139.85 123.145 138.292 123.216 136.527 123.354C136.294 123.381 136.092 123.394 135.921 123.394C135.671 123.394 135.499 123.368 135.42 123.314C135.271 123.229 135.196 122.997 135.196 122.623C135.196 122.248 135.57 121.971 136.413 121.722C136.773 121.614 137.054 121.409 137.251 121.106C137.488 120.74 137.607 120.227 137.607 119.571V99.9024C137.607 98.7425 137.436 97.8682 137.102 97.315C136.746 96.7708 136.123 96.338 135.262 96.0347C134.814 95.8875 134.577 95.651 134.577 95.3611C134.577 94.9239 134.911 94.5982 135.574 94.3796C136.619 94.0406 137.655 93.5454 138.691 92.903C139.574 92.3811 140.131 92.1223 140.373 92.1223C140.917 92.1223 141.189 92.4837 141.189 93.2153C141.141 94.4644 141.154 94.1521 141.106 95.4012C141.071 96.4406 141.053 97.4622 141.058 98.4749L141.141 119.054C141.145 119.937 141.365 120.571 141.808 120.985C142.247 121.378 143.007 121.637 144.087 121.771C144.741 121.833 145.083 122.087 145.083 122.507Z" fill="white"/>
<path id="Vector_20" fill-rule="evenodd" clip-rule="evenodd" d="M158 122.507C158 123.029 157.737 123.278 157.201 123.278C157.139 123.278 157.074 123.274 157.003 123.27C156.147 123.185 155.195 123.145 154.141 123.145C152.767 123.145 151.208 123.216 149.439 123.354C149.211 123.381 149.009 123.394 148.837 123.394C148.587 123.394 148.416 123.368 148.332 123.314C148.188 123.229 148.113 122.997 148.113 122.623C148.113 122.248 148.482 121.971 149.329 121.722C149.689 121.614 149.97 121.409 150.168 121.106C150.405 120.74 150.523 120.227 150.523 119.571V99.9024C150.523 98.7425 150.352 97.8682 150.014 97.315C149.658 96.7708 149.039 96.338 148.179 96.0347C147.731 95.8875 147.494 95.651 147.494 95.3611C147.494 94.9239 147.823 94.5982 148.491 94.3796C149.535 94.0406 150.572 93.5454 151.608 92.903C152.486 92.3811 153.048 92.1223 153.289 92.1223C153.834 92.1223 154.106 92.4837 154.106 93.2153C154.053 94.4644 154.066 94.1521 154.022 95.4012C153.983 96.4406 153.965 97.4622 153.97 98.4749L154.057 119.054C154.057 119.937 154.277 120.571 154.725 120.985C155.164 121.378 155.923 121.637 157.003 121.771C157.653 121.833 158 122.087 158 122.507Z" fill="white"/>
</g>
</svg>
