<svg width="24" height="24" viewBox="0 0 24 24" fill="none" xmlns="http://www.w3.org/2000/svg">
<g id="Group">
<path id="Vector" d="M20.717 10.94C20.9979 11.2213 21.1556 11.6025 21.1556 12C21.1556 12.3975 20.9979 12.7788 20.717 13.06L15.061 18.718C14.9216 18.8573 14.7562 18.9679 14.5742 19.0433C14.3921 19.1187 14.197 19.1575 14 19.1575C13.8029 19.1575 13.6078 19.1187 13.4258 19.0433C13.2437 18.9679 13.0783 18.8573 12.939 18.718C12.7996 18.5787 12.6891 18.4133 12.6137 18.2312C12.5383 18.0492 12.4995 17.8541 12.4995 17.657C12.4995 17.46 12.5383 17.2648 12.6137 17.0828C12.6891 16.9008 12.7996 16.7353 12.939 16.596L16.035 13.5H4.49996C4.10213 13.5 3.72061 13.342 3.4393 13.0607C3.158 12.7794 2.99996 12.3978 2.99996 12C2.99996 11.6022 3.158 11.2207 3.4393 10.9394C3.72061 10.658 4.10213 10.5 4.49996 10.5H16.035L12.939 7.40401C12.6577 7.12262 12.4997 6.74102 12.4998 6.34316C12.4999 5.9453 12.6581 5.56377 12.9395 5.28251C13.2209 5.00125 13.6025 4.84329 14.0003 4.84338C14.3982 4.84348 14.7797 5.00162 15.061 5.28301L20.717 10.94Z" fill="#1B0F03"/>
</g>
</svg>
