<svg width="70" height="88" viewBox="0 0 70 88" fill="none" xmlns="http://www.w3.org/2000/svg">
<g id="Group-22">
<path id="Combined-Shape" d="M46.3226 11.5831C51.9497 14.1231 53.524 21.0493 51.2461 28.1329L51.0226 28.8172L50.2226 31.2003L49.8618 32.301L49.6269 33.0455L49.4794 33.5351L49.318 34.109L49.2513 34.3667L49.1674 34.7221L49.1215 34.9413L49.0665 35.2484L49.0384 35.4417L49.0078 35.7193L48.9897 35.9882L48.9823 36.2551L48.9826 36.4353C49.0035 38.1816 49.433 38.8946 50.3693 38.945L50.4796 38.9479H65.8216L65.9452 38.9524L66.0695 38.9659L66.0974 38.9674C70.5591 39.2077 74.1037 42.8301 74.2226 47.2962L74.2256 47.5279C74.2256 49.0104 73.844 50.4348 73.1412 51.6909L73.0807 51.7942L73.1175 51.8272C74.7564 53.3604 75.7558 55.4943 75.8276 57.8078L75.8317 58.0755C75.8317 60.6524 74.6804 63.0193 72.7908 64.6154L72.7015 64.6874L72.8227 64.8663C73.6771 66.1657 74.1718 67.6876 74.2215 69.2895L74.2256 69.5572C74.2256 72.7802 72.4281 75.646 69.7001 77.1096L69.6331 77.1439L69.6562 77.2253C69.8183 77.8336 69.9132 78.4613 69.9371 79.0997L69.943 79.4199C69.943 83.8675 66.5432 87.5371 62.1688 87.9524L61.9319 87.9712L61.8877 87.9807C61.8466 87.987 61.805 87.9918 61.7629 87.995L61.6356 87.9999H32.5431C31.1053 87.9999 29.4988 87.3442 27.6672 86.186C26.8016 85.6387 25.9006 84.9853 24.9763 84.2477C24.3704 83.7642 23.7742 83.2604 23.1961 82.7492L23.1963 84.2813C23.1963 86.2794 21.6149 87.9047 19.6356 87.996L19.46 88H3.90469C1.90319 88 0.26442 86.4318 0.17241 84.4566L0.168335 84.2813V79.8239C0.168335 78.9155 0.904762 78.1791 1.81319 78.1791C2.68033 78.1791 3.39074 78.8501 3.45354 79.7012L3.45805 79.8239V84.2813C3.45805 84.4917 3.61755 84.6708 3.8315 84.7046L3.90469 84.7103H19.46C19.6848 84.7103 19.8667 84.5522 19.9008 84.3501L19.9066 84.2813V42.3729C19.9066 42.1623 19.7473 41.9833 19.5332 41.9496L19.46 41.9439H3.90469C3.67984 41.9439 3.49794 42.102 3.46381 42.3041L3.45805 42.3729V66.8119C3.45805 67.7203 2.72162 68.4568 1.81319 68.4568C0.946054 68.4568 0.235638 67.7858 0.172846 66.9347L0.168335 66.8119V42.3729C0.168335 40.3746 1.74987 38.7495 3.72905 38.6582L3.90469 38.6542H19.46C21.4617 38.6542 23.1002 40.2222 23.1922 42.1976L23.1963 42.3729L23.1971 43.9C26.8023 43.4149 29.6245 40.2296 32.2561 34.4884L32.4374 34.087L34.3501 29.3976L35.0228 27.7872L35.4612 26.7633L35.774 26.051L36.066 25.4059L36.3309 24.8454L36.4892 24.5273C36.5142 24.4784 36.5386 24.4316 36.5622 24.387L36.6947 24.1468C36.7152 24.1115 36.7348 24.0786 36.7537 24.0483L36.8075 23.965C38.0555 22.1274 39.0461 18.901 39.7319 15.1327C40.2824 12.1091 43.5184 10.3177 46.3226 11.5831ZM42.9684 15.7218C42.2323 19.7662 41.1865 23.2313 39.6965 25.5592L39.4949 25.8663L39.4145 26.0066L39.2664 26.2959L39.0887 26.6702L38.8126 27.2826L38.4176 28.1946L37.6231 30.0942L35.5476 35.1797L35.4162 35.4853L35.2516 35.8483L34.9196 36.5587L34.5837 37.248L34.2437 37.9159C31.3092 43.5515 27.8864 46.816 23.197 47.2138L23.1973 78.2542C23.2616 78.3027 23.3232 78.3566 23.3814 78.4158L23.6529 78.6851L24.0184 79.0382C24.1481 79.162 24.2853 79.2915 24.4296 79.4259C25.2542 80.1944 26.134 80.9627 27.0283 81.6764C27.8647 82.3438 28.6706 82.9283 29.4253 83.4055C30.695 84.2083 31.7499 84.6557 32.4217 84.7055L32.5431 84.7102L61.4236 84.7095L61.5687 84.6971C64.4069 84.5796 66.6533 82.2545 66.6533 79.4199C66.6533 78.65 66.4859 77.9041 66.1671 77.2154L66.0553 76.988C65.5725 76.062 66.0637 74.9264 67.0691 74.644C69.3396 74.0063 70.9359 71.9384 70.9359 69.5572C70.9359 68.0148 70.2675 66.5831 69.1185 65.5802C68.2249 64.8002 68.4255 63.3596 69.4982 62.8534C71.3434 61.9827 72.542 60.1378 72.542 58.0755C72.542 56.2023 71.5542 54.5019 69.9658 53.5472C69.0814 53.0157 68.8991 51.8105 69.5868 51.0412C70.4521 50.0731 70.9359 48.8393 70.9359 47.5279C70.9359 44.7282 68.747 42.4293 65.9664 42.2551L65.715 42.2437L65.6484 42.2375L50.4796 42.2376C47.368 42.2376 45.8025 39.973 45.6979 36.6946L45.6921 36.3505L45.693 36.1085L45.7028 35.7568L45.7242 35.4114L45.7459 35.1807L45.774 34.947L45.8093 34.7077L45.852 34.4606C45.8598 34.4186 45.8679 34.3763 45.8764 34.3334L45.9315 34.0701L45.9955 33.7931L46.0689 33.4999L46.1977 33.0248L46.3507 32.5001L46.6642 31.4937L47.1469 30.023L47.8989 27.7851L48.1143 27.1259C49.9397 21.4494 48.7685 16.2965 44.9693 14.5816C44.148 14.211 43.1421 14.7678 42.9684 15.7218ZM31.754 17.4233C32.6624 17.4233 33.3988 18.1597 33.3988 19.0681C33.3988 19.9353 32.7278 20.6457 31.8767 20.7085L31.754 20.713H27.1626C26.2542 20.713 25.5178 19.9765 25.5178 19.0681C25.5178 18.201 26.1888 17.4906 27.0399 17.4278L27.1626 17.4233H31.754ZM62.0936 17.4233C63.002 17.4233 63.7384 18.1597 63.7384 19.0681C63.7384 19.9353 63.0674 20.6457 62.2163 20.7085L62.0936 20.713H57.5022C56.5938 20.713 55.8574 19.9765 55.8574 19.0681C55.8574 18.201 56.5284 17.4906 57.3795 17.4278L57.5022 17.4233H62.0936ZM58.1426 5.58637C58.7504 6.19566 58.7812 7.16245 58.2359 7.80804L58.1397 7.91255L54.8914 11.153C54.2483 11.7946 53.2068 11.7933 52.5652 11.1502C51.9574 10.5409 51.9266 9.57411 52.4718 8.92852L52.5681 8.82401L55.8164 5.58355C56.4595 4.94197 57.501 4.94323 58.1426 5.58637ZM33.3351 5.48759L33.4399 5.58355L36.6863 8.82211C37.3294 9.46369 37.3307 10.5052 36.6891 11.1483C36.0813 11.7576 35.1146 11.7908 34.4677 11.2471L34.3629 11.1511L31.1165 7.91255C30.4734 7.27097 30.4721 6.22951 31.1137 5.58637C31.7215 4.97708 32.6882 4.94388 33.3351 5.48759ZM44.6281 0C45.4953 0 46.2057 0.671002 46.2685 1.5221L46.273 1.64486V6.2251C46.273 7.13353 45.5365 7.86996 44.6281 7.86996C43.761 7.86996 43.0506 7.19896 42.9878 6.34786L42.9833 6.2251V1.64486C42.9833 0.736429 43.7197 0 44.6281 0Z" fill="white"/>
</g>
</svg>
