<svg width="88" height="88" viewBox="0 0 88 88" fill="none" xmlns="http://www.w3.org/2000/svg">
<g id="Vector">
<path id="Vector_2" d="M86.882 55.0935L86.8849 55.2587L86.5649 71.3395C86.5317 73.0045 84.6917 73.9596 83.3232 73.086L83.1923 72.9957L79.4736 70.2297C78.9348 70.9594 78.372 71.6744 77.7856 72.374C64.2155 88.5616 41.0675 92.6396 22.7494 82.4091C22.4673 82.2516 22.2353 82.039 22.0594 81.7922C20.1696 80.6932 18.3385 79.4402 16.5832 78.0321C16.3093 77.9519 16.0469 77.8152 15.8143 77.6198C10.7516 73.3677 6.77441 68.1357 4.06624 62.2633C3.57709 61.2026 4.03958 59.9459 5.09922 59.4563C6.15887 58.9667 7.41441 59.4296 7.90355 60.4902C10.2211 65.5157 13.5664 70.0221 17.8043 73.7541C18.0568 73.8337 18.2969 73.964 18.5116 74.1444C35.385 88.3163 60.4644 86.1971 74.5287 69.4199C75.4574 68.3121 76.3202 67.1618 77.1155 65.9729C77.5603 65.3078 78.3133 64.9789 79.0528 65.0418L79.223 65.0633C79.5605 65.0937 79.8954 65.2057 80.1977 65.4057C80.3967 65.5373 80.5663 65.6968 80.7046 65.8756L82.4218 67.153L82.5924 58.55L75.1048 62.0028L75.2817 62.1302C76.1872 62.7797 76.4269 64.0132 75.8556 64.9499L75.7684 65.0816C75.1195 65.988 73.8871 66.2279 72.9513 65.656L72.8198 65.5688L69.6885 63.3227C68.4135 62.4081 68.5523 60.4899 69.8969 59.7519L70.0353 59.6821L83.888 53.2954C85.2541 52.6655 86.8011 53.6246 86.882 55.0935ZM62.1385 30.8377C62.9092 31.6313 62.9327 32.875 62.2215 33.696L62.0961 33.8288L37.3988 57.8585C36.6221 58.6143 35.4098 58.6543 34.587 57.9784L34.4536 57.8591L26.0868 49.7252C25.2496 48.9113 25.2301 47.5722 26.0433 46.7341C26.8136 45.9403 28.0549 45.8809 28.8953 46.5689L29.0315 46.6905L35.9251 53.3916L59.1503 30.7953C59.9871 29.9811 61.325 30 62.1385 30.8377ZM2.27907 39.4349C3.4446 39.4954 4.34042 40.4902 4.27994 41.6569C4.099 45.1475 4.37742 48.6538 5.10728 52.0783C5.35078 53.2208 4.62288 54.3446 3.48147 54.5883C2.34006 54.832 1.21737 54.1035 0.973866 52.961C0.166923 49.1748 -0.140917 45.2981 0.0591946 41.4376C0.119669 40.271 1.11354 39.3743 2.27907 39.4349ZM72.1857 10.375C82.5567 19.0856 88.2342 31.8324 87.9926 45.0772C87.9713 46.2452 87.008 47.1748 85.8411 47.1538C84.6742 47.1321 83.7456 46.1679 83.7669 44.9999C83.9854 33.0206 78.8528 21.4972 69.469 13.6158C52.5956 -0.556197 27.5162 1.56307 13.4519 18.3402C12.5232 19.4481 11.6604 20.5984 10.8651 21.7873C10.2225 22.7479 8.93702 23.0071 7.97801 22.3973L7.84936 22.3087L5.55947 20.6066L5.38744 29.2097L12.8758 25.7576L12.6989 25.63C11.7934 24.9804 11.5537 23.7469 12.1251 22.8102L12.2122 22.6785C12.8612 21.7721 14.0935 21.5322 15.0293 22.1041L15.1609 22.1913L18.2921 24.4375C19.5672 25.3521 19.4283 27.2702 18.0837 28.0082L17.9453 28.078L4.09263 34.4647C2.72651 35.0946 1.17952 34.1356 1.09862 32.6666L1.09574 32.5014L1.41573 16.4206C1.44776 14.8111 3.16822 13.865 4.5191 14.5929L4.65744 14.6742L4.78834 14.7645L8.63393 17.6236L9.01709 17.1132C9.21079 16.8608 9.40743 16.6102 9.60697 16.3615L10.2143 15.6209C25.7827 -2.95044 53.5286 -5.29503 72.1857 10.375Z" fill="white"/>
</g>
</svg>
